<?xml version="1.0" encoding="UTF-8" standalone="no"?>
<!-- Created with Inkscape (http://www.inkscape.org/) -->

<svg
   xmlns:dc="http://purl.org/dc/elements/1.1/"
   xmlns:cc="http://creativecommons.org/ns#"
   xmlns:rdf="http://www.w3.org/1999/02/22-rdf-syntax-ns#"
   xmlns:svg="http://www.w3.org/2000/svg"
   xmlns="http://www.w3.org/2000/svg"
   xmlns:sodipodi="http://sodipodi.sourceforge.net/DTD/sodipodi-0.dtd"
   xmlns:inkscape="http://www.inkscape.org/namespaces/inkscape"
   version="1.0"
   width="833.5"
   height="160.5"
   viewBox="0 0 1209.2696 168.12488"
   id="svg2"
   xml:space="preserve"
   inkscape:version="0.48.5 r10040"
   sodipodi:docname="B - Sign With Venmo.svg"
   inkscape:export-filename="/Users/andrewkhor/logos/B - Sign With Venmo.png"
   inkscape:export-xdpi="90"
   inkscape:export-ydpi="90"><metadata
     id="metadata4478"><rdf:RDF><cc:Work
         rdf:about=""><dc:format>image/svg+xml</dc:format><dc:type
           rdf:resource="http://purl.org/dc/dcmitype/StillImage" /><dc:title></dc:title></cc:Work></rdf:RDF></metadata><sodipodi:namedview
     pagecolor="#ffffff"
     bordercolor="#666666"
     borderopacity="1"
     objecttolerance="10"
     gridtolerance="10"
     guidetolerance="10"
     inkscape:pageopacity="0"
     inkscape:pageshadow="2"
     inkscape:window-width="1336"
     inkscape:window-height="754"
     id="namedview4476"
     showgrid="false"
     inkscape:zoom="1"
     inkscape:cx="414.20582"
     inkscape:cy="-16.896233"
     inkscape:window-x="0"
     inkscape:window-y="0"
     inkscape:window-maximized="0"
     inkscape:current-layer="g2387"
     fit-margin-top="0"
     fit-margin-left="0"
     fit-margin-right="0"
     fit-margin-bottom="0"
     showguides="true"
     inkscape:guide-bbox="true" /><defs
     id="defs20"><inkscape:perspective
       id="perspective24"
       inkscape:persp3d-origin="108.8125 : 52.375 : 1"
       inkscape:vp_z="217.625 : 78.5625 : 1"
       inkscape:vp_y="0 : 1000 : 0"
       inkscape:vp_x="0 : 78.5625 : 1"
       sodipodi:type="inkscape:persp3d" /><inkscape:perspective
       sodipodi:type="inkscape:persp3d"
       inkscape:vp_x="0 : 526.18109 : 1"
       inkscape:vp_y="0 : 1000 : 0"
       inkscape:vp_z="744.09448 : 526.18109 : 1"
       inkscape:persp3d-origin="372.04724 : 350.78739 : 1"
       id="perspective2461" /><inkscape:perspective
       sodipodi:type="inkscape:persp3d"
       inkscape:vp_x="0 : 526.18109 : 1"
       inkscape:vp_y="0 : 1000 : 0"
       inkscape:vp_z="744.09448 : 526.18109 : 1"
       inkscape:persp3d-origin="372.04724 : 350.78739 : 1"
       id="perspective2537" /></defs><g
     id="g2387"
     transform="translate(50.104361,-14.008879)"><g
       transform="matrix(5.3719851,0,0,1.38636,-2.0975143,-30.354)"
       style="fill:#5bc0de;fill-opacity:1;stroke:#41a1bd;stroke-width:1.59489965;stroke-miterlimit:4;stroke-opacity:1;stroke-dasharray:none"
       id="g7"
       inkscape:export-xdpi="90"
       inkscape:export-ydpi="90"><rect
         style="fill:#5bc0de;fill-opacity:1;stroke:#41a1bd;stroke-width:3;stroke-miterlimit:4;stroke-opacity:1;stroke-dasharray:none"
         id="rect3956"
         width="830.5"
         height="157.5"
         x="-32.5"
         y="9.5679779"
         transform="matrix(0.27007397,0,0,1.0465055,0.24599597,-0.51696567)"
         rx="31.472858" /></g><path
       d="m 21.386545,27.106963 72.830489,0 c 12.138266,1.03e-4 21.456676,3.170554 27.955216,9.511355 6.49854,6.341109 9.74781,14.191805 9.74781,23.552088 0,7.850799 -2.31938,14.584222 -6.95716,20.200474 -3.09153,3.744237 -7.61441,6.703332 -13.56962,8.877285 9.04674,2.294832 15.70302,6.235328 19.96884,11.821285 4.26485,5.58616 6.39825,12.60653 6.39825,21.06059 0,6.88501 -1.51801,13.07474 -4.55209,18.57021 -3.03506,5.49548 -7.18598,9.8438 -12.45375,13.04393 -3.26291,1.99341 -8.18696,3.4425 -14.77216,4.34832 -8.759493,1.20775 -14.571568,1.81163 -17.434275,1.81163 l -67.16155,0 0,-132.797167 z m 39.249179,52.086256 16.919185,0 c 6.069134,1.03e-4 10.292114,-1.101971 12.667967,-3.306324 2.375852,-2.204147 3.563778,-5.389696 3.564752,-9.556748 -9.74e-4,-3.864807 -1.1889,-6.884289 -3.564752,-9.058448 -2.375853,-2.173954 -6.513146,-3.260931 -12.409934,-3.261033 l -17.177218,0 0,25.182553 z m 0,52.176741 19.839341,0 c 6.699125,0 11.422592,-1.25294 14.171375,-3.75882 2.74781,-2.50691 4.121715,-5.87342 4.121715,-10.10055 0,-3.92519 -1.359299,-7.08065 -4.078871,-9.46606 -2.720546,-2.38531 -7.486857,-3.57807 -14.299905,-3.57807 l -19.753655,0 0,26.9035 z"
       style="font-size:180.64053345px;font-style:normal;font-variant:normal;font-weight:normal;font-stretch:normal;text-align:start;line-height:125%;writing-mode:lr-tb;text-anchor:start;fill:#ffffff;fill-opacity:1;stroke:none;font-family:Arial Black"
       id="text2545"
       inkscape:connector-curvature="0" /><flowRoot
       xml:space="preserve"
       id="flowRoot3174"
       style="font-size:40px;font-style:normal;font-weight:normal;line-height:125%;letter-spacing:0px;word-spacing:0px;fill:#000000;fill-opacity:1;stroke:none;font-family:Sans"
       transform="matrix(1.4508333,0,0,1.4508333,43.524999,-7.0359356)"><flowRegion
         id="flowRegion3176"><rect
           id="rect3178"
           width="655.09253"
           height="140.92389"
           x="144.29141"
           y="33.518761" /></flowRegion><flowPara
         id="flowPara3180"
         style="font-size:60px;font-style:normal;font-variant:normal;font-weight:normal;font-stretch:normal;fill:#ffffff;fill-opacity:1;font-family:Apple SD Gothic Neo;-inkscape-font-specification:Apple SD Gothic Neo">Sign Up With Venmo</flowPara></flowRoot><rect
       style="fill:#41a1bd;fill-opacity:1;fill-rule:evenodd;stroke:none"
       id="rect3182"
       width="6.155364"
       height="228.31924"
       x="200.04933"
       y="-17.907656" /></g></svg>