<?xml version="1.0" encoding="UTF-8" standalone="no"?>
<!-- Created with Inkscape (http://www.inkscape.org/) -->

<svg
   xmlns:dc="http://purl.org/dc/elements/1.1/"
   xmlns:cc="http://creativecommons.org/ns#"
   xmlns:rdf="http://www.w3.org/1999/02/22-rdf-syntax-ns#"
   xmlns:svg="http://www.w3.org/2000/svg"
   xmlns="http://www.w3.org/2000/svg"
   xmlns:sodipodi="http://sodipodi.sourceforge.net/DTD/sodipodi-0.dtd"
   xmlns:inkscape="http://www.inkscape.org/namespaces/inkscape"
   version="1.0"
   width="150"
   height="149.999"
   viewBox="0 0 217.625 157.125"
   id="svg2"
   xml:space="preserve"
   inkscape:version="0.48.5 r10040"
   sodipodi:docname="B.svg"><metadata
     id="metadata4478"><rdf:RDF><cc:Work
         rdf:about=""><dc:format>image/svg+xml</dc:format><dc:type
           rdf:resource="http://purl.org/dc/dcmitype/StillImage" /></cc:Work></rdf:RDF></metadata><sodipodi:namedview
     pagecolor="#ffffff"
     bordercolor="#666666"
     borderopacity="1"
     objecttolerance="10"
     gridtolerance="10"
     guidetolerance="10"
     inkscape:pageopacity="0"
     inkscape:pageshadow="2"
     inkscape:window-width="1087"
     inkscape:window-height="632"
     id="namedview4476"
     showgrid="false"
     inkscape:zoom="1.5733439"
     inkscape:cx="75"
     inkscape:cy="74.999496"
     inkscape:window-x="0"
     inkscape:window-y="0"
     inkscape:window-maximized="0"
     inkscape:current-layer="g2387" /><defs
     id="defs20"><inkscape:perspective
       id="perspective24"
       inkscape:persp3d-origin="108.8125 : 52.375 : 1"
       inkscape:vp_z="217.625 : 78.5625 : 1"
       inkscape:vp_y="0 : 1000 : 0"
       inkscape:vp_x="0 : 78.5625 : 1"
       sodipodi:type="inkscape:persp3d" /><inkscape:perspective
       sodipodi:type="inkscape:persp3d"
       inkscape:vp_x="0 : 526.18109 : 1"
       inkscape:vp_y="0 : 1000 : 0"
       inkscape:vp_z="744.09448 : 526.18109 : 1"
       inkscape:persp3d-origin="372.04724 : 350.78739 : 1"
       id="perspective2461" /><inkscape:perspective
       sodipodi:type="inkscape:persp3d"
       inkscape:vp_x="0 : 526.18109 : 1"
       inkscape:vp_y="0 : 1000 : 0"
       inkscape:vp_z="744.09448 : 526.18109 : 1"
       inkscape:persp3d-origin="372.04724 : 350.78739 : 1"
       id="perspective2537" /></defs><g
     id="g2387"><g
       transform="matrix(0.99918,0,0,1.38636,8.88882e-2,-30.354)"
       style="fill:#5bc0de;fill-opacity:1"
       id="g7"><path
         d="M 217.125,144.625 C 217.125,151.252 211.752,156.625 205.125,156.625 L 12.5,156.625 C 5.873,156.625 0.5,151.252 0.5,144.625 L 0.5,12.5 C 0.5,5.873 5.873,0.5 12.5,0.5 L 205.125,0.5 C 211.752,0.5 217.125,5.873 217.125,12.5 L 217.125,144.625 z "
         style="fill:#5bc0de;fill-opacity:1"
         id="path9" /><path
         d="M 217.125,144.625 C 217.125,151.252 211.752,156.625 205.125,156.625 L 12.5,156.625 C 5.873,156.625 0.5,151.252 0.5,144.625 L 0.5,12.5 C 0.5,5.873 5.873,0.5 12.5,0.5 L 205.125,0.5 C 211.752,0.5 217.125,5.873 217.125,12.5 L 217.125,144.625 z "
         style="fill:#5bc0de;fill-opacity:1;stroke:#ffffff"
         id="path11" /></g><path
       d="M 54.7441,13.6801 L 129.541,13.6801 C 142.007,13.6802 151.577,16.7673 158.251,22.9414 C 164.925,29.1158 168.262,36.7601 168.262,45.8743 C 168.262,53.5187 165.88,60.0751 161.117,65.5437 C 157.942,69.1895 153.297,72.0708 147.181,74.1876 C 156.472,76.4221 163.308,80.259 167.689,85.6981 C 172.069,91.1374 174.26,97.9732 174.26,106.205 C 174.26,112.909 172.701,118.936 169.585,124.287 C 166.468,129.638 162.205,133.872 156.795,136.988 C 153.444,138.929 148.387,140.34 141.624,141.222 C 132.628,142.398 126.659,142.986 123.719,142.986 L 54.7441,142.986 L 54.7441,13.6801 z M 95.053,64.397 L 112.429,64.397 C 118.662,64.3971 122.999,63.324 125.439,61.1776 C 127.879,59.0314 129.099,55.9296 129.1,51.8721 C 129.099,48.1089 127.879,45.1688 125.439,43.0518 C 122.999,40.935 118.75,39.8766 112.694,39.8765 L 95.053,39.8765 L 95.053,64.397 z M 95.053,115.202 L 115.428,115.202 C 122.308,115.202 127.159,113.982 129.982,111.542 C 132.804,109.101 134.215,105.823 134.215,101.707 C 134.215,97.885 132.819,94.8125 130.026,92.4898 C 127.232,90.1672 122.337,89.0058 115.34,89.0058 L 95.053,89.0058 L 95.053,115.202 z "
       transform="scale(0.97371,1.027)"
       style="font-size:180.640533px;font-style:normal;font-variant:normal;font-weight:normal;font-stretch:normal;text-align:start;line-height:125%;writing-mode:lr-tb;text-anchor:start;fill:#ffffff;fill-opacity:1;stroke:none;stroke-width:1px;stroke-linecap:butt;stroke-linejoin:miter;stroke-opacity:1;font-family:Arial Black"
       id="text2545" /></g></svg>