<?xml version="1.0" encoding="utf-8"?>
<!DOCTYPE svg PUBLIC "-//W3C//DTD SVG 1.1//EN" "http://www.w3.org/Graphics/SVG/1.1/DTD/svg11.dtd">
<svg version="1.1" xmlns="http://www.w3.org/2000/svg" xmlns:xlink="http://www.w3.org/1999/xlink" x="0px" y="0px" width="30px" height="30px" viewBox="0 0 30 30" enable-background="new 0 0 30 30" xml:space="preserve">
    <g fill="#9b9fa2">
        <path d="M22,18c1-1,2-1,2-3c1,0,2-2,0-2c3-8-8-7-6-4c-1,0-2-1-1,4c-2,0-1,2,0,2c0,2,1,2,2,3c0,1.2-0.9,1.6-2,1.9V20c0,0,1,1,1,3c3.9,0,7.9,0,10,0C28,19,22,21,22,18z"/>
        <path d="M11,18c1.1,0,4-1,4-2c-2-1-2-3-2-5c0-5-7-5-7,0c0,2,0,4-2,5c0,1,2.9,2,4,2c0,4-6,1-6,5h15C17,19,11,22,11,18z"/>
    </g>
</svg>
